<svg width="496" height="496" viewBox="0 0 496 496" fill="none" xmlns="http://www.w3.org/2000/svg">
<path d="M248 0C111.03 0 0 111.03 0 248C0 384.97 111.03 496 248 496C384.97 496 496 384.97 496 248C496 111.03 384.97 0 248 0ZM248 448C137.72 448 48 358.28 48 248C48 137.72 137.72 48 248 48C358.28 48 448 137.72 448 248C448 358.28 358.28 448 248 448Z" fill="white"/>
<path d="M204.5 319V312.875C208.667 312.042 211.75 311.125 213.75 310.125C215.833 309.125 217.375 307.75 218.375 306C219.375 304.167 219.875 301.75 219.875 298.75C219.875 295.917 219.542 292.875 218.875 289.625C218.208 286.292 217.25 282.583 216 278.5L211.375 262.375H153.125L148.875 274.625C146.708 280.792 145.292 285.458 144.625 288.625C143.958 291.792 143.625 294.667 143.625 297.25C143.625 302.25 144.875 305.917 147.375 308.25C149.958 310.583 153.875 312.125 159.125 312.875V319H105.75V312.875C110.417 312.125 114.458 309.417 117.875 304.75C121.375 300.083 124.75 293.417 128 284.75L180.125 146.375H199.875L242.375 285.75C244.375 292.25 246.125 297.208 247.625 300.625C249.208 304.042 251.083 306.708 253.25 308.625C255.417 310.542 258.375 311.958 262.125 312.875V319H204.5ZM156.5 251.5H208.75L185 170.875L156.5 251.5ZM348.875 301.125L347 300.625C339.75 308.042 332.917 313.292 326.5 316.375C320.167 319.458 313.417 321 306.25 321C299.917 321 294.333 319.792 289.5 317.375C284.667 314.875 280.958 311.417 278.375 307C275.792 302.5 274.5 297.333 274.5 291.5C274.5 279.333 280.5 269.958 292.5 263.375C304.583 256.708 322.667 252.833 346.75 251.75V243.625C346.75 234.958 345.917 228.125 344.25 223.125C342.583 218.125 339.958 214.458 336.375 212.125C332.792 209.792 328 208.625 322 208.625C315.5 208.625 310.25 210.333 306.25 213.75C302.333 217.167 299.375 222.292 297.375 229.125H281V212.875C289 208.708 295.667 205.667 301 203.75C306.333 201.75 311.667 200.208 317 199.125C322.333 197.958 327.75 197.375 333.25 197.375C341.5 197.375 348.125 198.708 353.125 201.375C358.125 203.958 361.875 207.958 364.375 213.375C366.875 218.792 368.125 226.958 368.125 237.875V281.375C368.125 287.542 368.167 291.917 368.25 294.5C368.333 297 368.583 299.333 369 301.5C369.417 303.667 370.042 305.417 370.875 306.75C371.708 308 372.917 309.083 374.5 310C376.167 310.917 378.833 311.875 382.5 312.875V319H348.25L348.875 301.125ZM346.75 262C329.833 262.167 317.167 264.417 308.75 268.75C300.333 273.083 296.125 279.625 296.125 288.375C296.125 293.125 297.083 296.875 299 299.625C300.917 302.375 303.333 304.292 306.25 305.375C309.167 306.375 312.625 306.875 316.625 306.875C322.292 306.875 327.417 305.5 332 302.75C336.667 300 340.292 296.5 342.875 292.25C345.458 288 346.75 283.792 346.75 279.625V262Z" fill="white"/>
</svg>
