<svg width="496" height="496" viewBox="0 0 496 496" fill="none" xmlns="http://www.w3.org/2000/svg">
<path d="M347.94 121.86L203.6 187.83C196.619 191.021 191.021 196.619 187.83 203.6L121.86 347.94C114.25 364.59 131.4 381.75 148.06 374.14L292.4 308.17C299.381 304.979 304.979 299.381 308.17 292.4L374.14 148.06C381.75 131.4 364.6 114.25 347.94 121.86ZM270.58 270.58C258.11 283.05 289.97 264.47 277.5 252C265.03 239.53 212.95 237.89 225.42 225.42C237.89 212.95 188.03 250.53 200.5 263C212.97 275.47 283.05 258.11 270.58 270.58ZM248 0C111.03 0 0 111.03 0 248C0 384.97 111.03 496 248 496C384.97 496 496 384.97 496 248C496 111.03 384.97 0 248 0ZM248 448C137.72 448 48 358.28 48 248C48 137.72 137.72 48 248 48C358.28 48 448 137.72 448 248C448 358.28 358.28 448 248 448Z" fill="white"/>
</svg>
