<svg width="512" height="512" viewBox="0 0 512 512" fill="none" xmlns="http://www.w3.org/2000/svg">
<path fill-rule="evenodd" clip-rule="evenodd" d="M380.72 339.336C397.203 314.668 406 285.667 406 256H368.5C368.5 278.25 361.902 300.001 349.54 318.502C337.179 337.002 319.609 351.422 299.052 359.936C285.337 365.618 270.703 368.5 256 368.5V406C275.604 406 295.115 402.157 313.403 394.582C340.812 383.229 364.238 364.003 380.72 339.336ZM117.418 198.597C109.613 217.441 105.77 237.585 106.011 257.79C106.004 257.194 106 256.597 106 256H143.5C143.5 241.297 146.383 226.663 152.064 212.948C160.578 192.391 174.998 174.821 193.498 162.46C211.999 150.098 233.75 143.5 256 143.5V106C226.333 106 197.332 114.797 172.665 131.28C147.997 147.762 128.771 171.189 117.418 198.597Z" fill="#FFF"/>
<path d="M255.5 143C270.274 143 284.903 145.91 298.552 151.564C312.201 157.217 324.603 165.504 335.05 175.95C345.496 186.397 353.783 198.799 359.436 212.448C365.09 226.097 368 240.726 368 255.5L339.875 255.5C339.875 244.42 337.693 233.448 333.452 223.211C329.212 212.974 322.997 203.673 315.162 195.838C307.327 188.003 298.026 181.788 287.789 177.548C277.552 173.307 266.58 171.125 255.5 171.125L255.5 143Z" fill="#FFF"/>
<path d="M255.5 368C240.726 368 226.097 365.09 212.448 359.436C198.799 353.783 186.397 345.496 175.95 335.05C165.504 324.603 157.217 312.201 151.564 298.552C145.91 284.903 143 270.274 143 255.5L171.125 255.5C171.125 266.58 173.307 277.552 177.548 287.789C181.788 298.026 188.003 307.327 195.838 315.162C203.673 322.997 212.974 329.212 223.211 333.452C233.448 337.693 244.42 339.875 255.5 339.875L255.5 368Z" fill="#FFF"/>
</svg>
