<svg width="512" height="512" viewBox="0 0 512 512" fill="none" xmlns="http://www.w3.org/2000/svg">
<mask id="path-1-inside-1_292_2" fill="white">
<path d="M106 138C106 120.327 120.327 106 138 106H374C391.673 106 406 120.327 406 138V374C406 391.673 391.673 406 374 406H138C120.327 406 106 391.673 106 374V138Z"/>
</mask>
<path d="M106 138C106 97.1309 139.131 64 180 64H374C414.869 64 448 97.1309 448 138L364 148H138C120.327 148 106 148 106 148V138ZM448 374C448 414.869 414.869 448 374 448H180C139.131 448 106 414.869 106 374V364C106 364 120.327 364 138 364H364L448 374ZM106 406V106V406ZM374 64C414.869 64 448 97.1309 448 138V374C448 414.869 414.869 448 374 448L364 364V148L374 64Z" fill="white" mask="url(#path-1-inside-1_292_2)"/>
<path d="M31 244C24.3726 244 19 249.373 19 256C19 262.627 24.3726 268 31 268L31 244ZM189.485 264.485C194.172 259.799 194.172 252.201 189.485 247.515L113.118 171.147C108.431 166.461 100.833 166.461 96.1472 171.147C91.4609 175.833 91.4609 183.431 96.1472 188.118L164.029 256L96.1472 323.882C91.4609 328.569 91.4609 336.167 96.1472 340.853C100.833 345.539 108.431 345.539 113.118 340.853L189.485 264.485ZM31 268L181 268V244L31 244L31 268Z" fill="white"/>
</svg>
